<svg xmlns="http://www.w3.org/2000/svg" xmlns:xlink="http://www.w3.org/1999/xlink" width="1920" zoomAndPan="magnify" viewBox="0 0 1440 374.999991" height="500" preserveAspectRatio="xMidYMid meet" version="1.0"><defs><g/><clipPath id="4b4edc105b"><rect x="0" width="1310" y="0" height="263"/></clipPath><clipPath id="167ab9f8b8"><path d="M 1348.148438 37.5 L 1402.148438 37.5 L 1402.148438 91.5 L 1348.148438 91.5 Z M 1348.148438 37.5 " clip-rule="nonzero"/></clipPath></defs><g transform="matrix(1, 0, 0, 1, 64, 56)"><g clip-path="url(#4b4edc105b)"><g fill="#4e2780" fill-opacity="1"><g transform="translate(2.559071, 212.629917)"><g><path d="M 55.796875 -106.015625 C 45.117188 -106.015625 36.300781 -104.394531 29.34375 -101.15625 C 22.394531 -97.925781 18.921875 -93.078125 18.921875 -86.609375 C 18.921875 -81.921875 20.253906 -78.566406 22.921875 -76.546875 C 25.585938 -74.523438 28.625 -73.515625 32.03125 -73.515625 C 34.78125 -73.515625 37.003906 -73.957031 38.703125 -74.84375 C 40.398438 -75.726562 41.734375 -76.773438 42.703125 -77.984375 C 43.671875 -79.203125 44.316406 -80.539062 44.640625 -82 C 44.960938 -83.457031 45.125 -84.671875 45.125 -85.640625 C 45.125 -89.679688 43.585938 -92.675781 40.515625 -94.625 C 39.378906 -95.269531 38.8125 -96.078125 38.8125 -97.046875 C 38.8125 -98.335938 40.023438 -99.425781 42.453125 -100.3125 C 44.878906 -101.207031 49.410156 -101.65625 56.046875 -101.65625 C 62.023438 -101.65625 65.90625 -100.035156 67.6875 -96.796875 C 69.46875 -93.566406 70.359375 -89.039062 70.359375 -83.21875 L 70.359375 -63.8125 L 44.15625 -63.8125 C 37.519531 -63.8125 31.734375 -62.796875 26.796875 -60.765625 C 21.867188 -58.742188 17.75 -56.113281 14.4375 -52.875 C 11.125 -49.644531 8.65625 -45.96875 7.03125 -41.84375 C 5.414062 -37.71875 4.609375 -33.554688 4.609375 -29.359375 C 4.609375 -24.992188 5.375 -20.828125 6.90625 -16.859375 C 8.445312 -12.898438 10.753906 -9.460938 13.828125 -6.546875 C 16.898438 -3.640625 20.738281 -1.335938 25.34375 0.359375 C 29.957031 2.054688 35.335938 2.90625 41.484375 2.90625 C 45.523438 2.90625 49.125 2.5 52.28125 1.6875 C 55.4375 0.882812 58.226562 -0.160156 60.65625 -1.453125 C 63.082031 -2.742188 65.222656 -4.117188 67.078125 -5.578125 C 68.941406 -7.035156 70.519531 -8.410156 71.8125 -9.703125 C 73.269531 -6.304688 76.179688 -3.351562 80.546875 -0.84375 C 84.910156 1.65625 91.21875 2.90625 99.46875 2.90625 C 105.289062 2.90625 109.898438 2.257812 113.296875 0.96875 C 116.691406 -0.320312 119.316406 -1.859375 121.171875 -3.640625 C 123.035156 -5.421875 124.25 -7.359375 124.8125 -9.453125 C 125.382812 -11.554688 125.671875 -13.5 125.671875 -15.28125 C 125.671875 -16.570312 125.1875 -17.21875 124.21875 -17.21875 C 123.082031 -17.21875 122.4375 -16.492188 122.28125 -15.046875 C 121.789062 -12.617188 121.019531 -10.515625 119.96875 -8.734375 C 118.914062 -6.953125 117.015625 -6.0625 114.265625 -6.0625 C 111.035156 -6.0625 108.972656 -7.148438 108.078125 -9.328125 C 107.191406 -11.515625 106.75 -14.550781 106.75 -18.4375 L 106.75 -69.390625 C 106.75 -76.179688 105.816406 -81.921875 103.953125 -86.609375 C 102.097656 -91.296875 99.109375 -95.09375 94.984375 -98 C 90.859375 -100.914062 85.597656 -102.976562 79.203125 -104.1875 C 72.816406 -105.40625 65.015625 -106.015625 55.796875 -106.015625 Z M 70.359375 -59.4375 L 70.359375 -16.984375 C 70.359375 -15.523438 69.671875 -14.023438 68.296875 -12.484375 C 66.921875 -10.953125 65.257812 -9.578125 63.3125 -8.359375 C 61.375 -7.148438 59.4375 -6.140625 57.5 -5.328125 C 55.5625 -4.523438 54.101562 -4.125 53.125 -4.125 C 49.082031 -4.125 46.210938 -6.101562 44.515625 -10.0625 C 42.816406 -14.03125 41.96875 -20.539062 41.96875 -29.59375 C 41.96875 -38.488281 43.382812 -45.6875 46.21875 -51.1875 C 49.050781 -56.6875 53.78125 -59.4375 60.40625 -59.4375 Z M 70.359375 -59.4375 "/></g></g></g><g fill="#4e2780" fill-opacity="1"><g transform="translate(133.058, 212.629917)"><g><path d="M 56.046875 -3.875 L 56.046875 -169.578125 L 6.546875 -160.359375 L 6.546875 -156.484375 L 19.65625 -158.90625 L 19.65625 -3.875 L 6.546875 -3.875 L 6.546875 0 L 69.140625 0 L 69.140625 -3.875 Z M 56.046875 -3.875 "/></g></g></g><g fill="#4e2780" fill-opacity="1"><g transform="translate(207.282291, 212.629917)"><g><path d="M 56.046875 -3.875 L 56.046875 -169.578125 L 6.546875 -160.359375 L 6.546875 -156.484375 L 19.65625 -158.90625 L 19.65625 -3.875 L 6.546875 -3.875 L 6.546875 0 L 69.140625 0 L 69.140625 -3.875 Z M 56.046875 -3.875 "/></g></g></g><g fill="#ab1d79" fill-opacity="1"><g transform="translate(281.553409, 212.629917)"><g><path d="M 158.671875 -96.3125 C 158.671875 -95.507812 158.628906 -94.863281 158.546875 -94.375 C 158.460938 -93.882812 158.34375 -93.398438 158.1875 -92.921875 L 140.46875 -40.515625 L 113.0625 -100.4375 L 121.546875 -100.4375 L 121.546875 -104.328125 L 70.84375 -104.328125 L 70.84375 -100.4375 L 79.328125 -100.4375 L 93.15625 -69.875 L 81.765625 -41.734375 L 53.375 -100.4375 L 61.375 -100.4375 L 61.375 -104.328125 L 6.796875 -104.328125 L 6.796875 -100.4375 L 16.734375 -100.4375 L 64.296875 0 L 69.625 0 L 95.828125 -65.75 L 125.421875 0 L 131.015625 0 L 162.546875 -92.921875 C 163.359375 -95.179688 164.570312 -97 166.1875 -98.375 C 167.800781 -99.75 170.550781 -100.4375 174.4375 -100.4375 L 174.4375 -104.328125 L 150.421875 -104.328125 L 150.421875 -100.4375 C 153.648438 -100.4375 155.832031 -99.988281 156.96875 -99.09375 C 158.101562 -98.207031 158.671875 -97.28125 158.671875 -96.3125 Z M 158.671875 -96.3125 "/></g></g></g><g fill="#ab1d79" fill-opacity="1"><g transform="translate(460.322426, 212.629917)"><g><path d="M 3.875 -51.671875 C 3.875 -44.878906 5.003906 -38.207031 7.265625 -31.65625 C 9.535156 -25.101562 12.894531 -19.28125 17.34375 -14.1875 C 21.789062 -9.09375 27.453125 -4.96875 34.328125 -1.8125 C 41.203125 1.332031 49.25 2.90625 58.46875 2.90625 C 67.6875 2.90625 75.734375 1.332031 82.609375 -1.8125 C 89.484375 -4.96875 95.144531 -9.09375 99.59375 -14.1875 C 104.039062 -19.28125 107.394531 -25.101562 109.65625 -31.65625 C 111.925781 -38.207031 113.0625 -44.878906 113.0625 -51.671875 C 113.0625 -58.460938 111.925781 -65.132812 109.65625 -71.6875 C 107.394531 -78.238281 104.039062 -84.0625 99.59375 -89.15625 C 95.144531 -94.25 89.484375 -98.375 82.609375 -101.53125 C 75.734375 -104.6875 67.6875 -106.265625 58.46875 -106.265625 C 49.25 -106.265625 41.203125 -104.6875 34.328125 -101.53125 C 27.453125 -98.375 21.789062 -94.25 17.34375 -89.15625 C 12.894531 -84.0625 9.535156 -78.238281 7.265625 -71.6875 C 5.003906 -65.132812 3.875 -58.460938 3.875 -51.671875 Z M 41.484375 -60.65625 C 41.484375 -67.125 41.644531 -72.945312 41.96875 -78.125 C 42.289062 -83.300781 43.019531 -87.625 44.15625 -91.09375 C 45.289062 -94.570312 46.988281 -97.238281 49.25 -99.09375 C 51.507812 -100.957031 54.582031 -101.890625 58.46875 -101.890625 C 62.351562 -101.890625 65.425781 -100.957031 67.6875 -99.09375 C 69.945312 -97.238281 71.644531 -94.570312 72.78125 -91.09375 C 73.914062 -87.625 74.644531 -83.300781 74.96875 -78.125 C 75.289062 -72.945312 75.453125 -67.125 75.453125 -60.65625 L 75.453125 -41.734375 C 75.453125 -35.097656 75.289062 -29.269531 74.96875 -24.25 C 74.644531 -19.238281 73.914062 -15.035156 72.78125 -11.640625 C 71.644531 -8.242188 69.945312 -5.695312 67.6875 -4 C 65.425781 -2.300781 62.351562 -1.453125 58.46875 -1.453125 C 54.582031 -1.453125 51.507812 -2.300781 49.25 -4 C 46.988281 -5.695312 45.289062 -8.242188 44.15625 -11.640625 C 43.019531 -15.035156 42.289062 -19.238281 41.96875 -24.25 C 41.644531 -29.269531 41.484375 -35.097656 41.484375 -41.734375 Z M 41.484375 -60.65625 "/></g></g></g><g fill="#ab1d79" fill-opacity="1"><g transform="translate(577.237822, 212.629917)"><g><path d="M 121.0625 -3.875 L 121.0625 -72.546875 C 121.0625 -79.335938 120.050781 -84.992188 118.03125 -89.515625 C 116.007812 -94.046875 113.335938 -97.601562 110.015625 -100.1875 C 106.703125 -102.78125 102.820312 -104.601562 98.375 -105.65625 C 93.925781 -106.707031 89.273438 -107.234375 84.421875 -107.234375 C 80.222656 -107.234375 76.460938 -106.664062 73.140625 -105.53125 C 69.828125 -104.40625 66.957031 -102.953125 64.53125 -101.171875 C 62.101562 -99.390625 60 -97.285156 58.21875 -94.859375 C 56.445312 -92.429688 54.992188 -90.003906 53.859375 -87.578125 L 53.859375 -110.140625 L 3.640625 -101.65625 L 3.640625 -97.53125 L 16.734375 -99.71875 L 16.734375 -3.875 L 3.640625 -3.875 L 3.640625 0 L 63.5625 0 L 63.5625 -3.875 L 53.125 -3.875 L 53.125 -70.59375 C 53.125 -73.832031 53.8125 -77.191406 55.1875 -80.671875 C 56.5625 -84.148438 58.300781 -87.300781 60.40625 -90.125 C 62.507812 -92.957031 64.773438 -95.300781 67.203125 -97.15625 C 69.628906 -99.019531 71.972656 -99.953125 74.234375 -99.953125 C 78.765625 -99.953125 81.632812 -98.171875 82.84375 -94.609375 C 84.0625 -91.054688 84.671875 -85.5625 84.671875 -78.125 L 84.671875 -3.875 L 74.234375 -3.875 L 74.234375 0 L 134.15625 0 L 134.15625 -3.875 Z M 121.0625 -3.875 "/></g></g></g><g fill="#ab1d79" fill-opacity="1"><g transform="translate(713.800846, 212.629917)"><g><path d="M 48.515625 -64.046875 C 48.515625 -71.160156 48.71875 -77.0625 49.125 -81.75 C 49.53125 -86.445312 50.21875 -90.171875 51.1875 -92.921875 C 52.15625 -95.671875 53.40625 -97.609375 54.9375 -98.734375 C 56.476562 -99.867188 58.460938 -100.4375 60.890625 -100.4375 C 65.421875 -100.4375 69.34375 -98.816406 72.65625 -95.578125 C 75.976562 -92.347656 78.769531 -88.710938 81.03125 -84.671875 L 81.03125 -22.078125 C 80.0625 -20.296875 78.847656 -18.394531 77.390625 -16.375 C 75.929688 -14.351562 74.3125 -12.453125 72.53125 -10.671875 C 70.757812 -8.890625 68.898438 -7.429688 66.953125 -6.296875 C 65.015625 -5.171875 62.992188 -4.609375 60.890625 -4.609375 C 58.460938 -4.609375 56.441406 -5.007812 54.828125 -5.8125 C 53.210938 -6.625 51.957031 -8.242188 51.0625 -10.671875 C 50.175781 -13.097656 49.53125 -16.613281 49.125 -21.21875 C 48.71875 -25.832031 48.515625 -32.019531 48.515625 -39.78125 Z M 68.171875 -156.484375 L 81.03125 -158.90625 L 81.03125 -93.15625 C 79.09375 -96.875 76.019531 -99.945312 71.8125 -102.375 C 67.601562 -104.800781 62.101562 -106.015625 55.3125 -106.015625 C 47.226562 -106.015625 40.148438 -104.476562 34.078125 -101.40625 C 28.015625 -98.332031 22.960938 -94.25 18.921875 -89.15625 C 14.878906 -84.0625 11.847656 -78.28125 9.828125 -71.8125 C 7.804688 -65.34375 6.796875 -58.710938 6.796875 -51.921875 C 6.796875 -45.128906 7.804688 -38.457031 9.828125 -31.90625 C 11.847656 -25.351562 14.878906 -19.53125 18.921875 -14.4375 C 22.960938 -9.34375 28.015625 -5.257812 34.078125 -2.1875 C 40.148438 0.882812 47.226562 2.421875 55.3125 2.421875 C 61.457031 2.421875 66.671875 0.6875 70.953125 -2.78125 C 75.242188 -6.257812 78.601562 -9.695312 81.03125 -13.09375 L 81.03125 0 L 130.53125 0 L 130.53125 -3.875 L 117.421875 -3.875 L 117.421875 -169.578125 L 68.171875 -160.359375 Z M 68.171875 -156.484375 "/></g></g></g><g fill="#ab1d79" fill-opacity="1"><g transform="translate(849.393592, 212.629917)"><g><path d="M 55.3125 -89.03125 L 55.3125 -109.90625 L 5.828125 -101.65625 L 5.828125 -97.53125 L 18.921875 -99.71875 L 18.921875 -3.875 L 5.828125 -3.875 L 5.828125 0 L 68.421875 0 L 68.421875 -3.875 L 55.3125 -3.875 L 55.3125 -74 C 55.3125 -76.425781 55.878906 -79.175781 57.015625 -82.25 C 58.148438 -85.320312 59.804688 -88.269531 61.984375 -91.09375 C 64.171875 -93.925781 66.71875 -96.3125 69.625 -98.25 C 72.539062 -100.195312 75.859375 -101.171875 79.578125 -101.171875 C 77.796875 -100.035156 75.929688 -98.332031 73.984375 -96.0625 C 72.046875 -93.800781 71.078125 -90.734375 71.078125 -86.859375 C 71.078125 -82.160156 72.613281 -78.351562 75.6875 -75.4375 C 78.757812 -72.53125 82.96875 -71.078125 88.3125 -71.078125 C 92.519531 -71.078125 96.398438 -72.410156 99.953125 -75.078125 C 103.515625 -77.753906 105.296875 -81.84375 105.296875 -87.34375 C 105.296875 -93.644531 103.269531 -98.375 99.21875 -101.53125 C 95.175781 -104.6875 89.679688 -106.265625 82.734375 -106.265625 C 76.265625 -106.265625 70.679688 -104.644531 65.984375 -101.40625 C 61.296875 -98.175781 57.738281 -94.050781 55.3125 -89.03125 Z M 55.3125 -89.03125 "/></g></g></g><g fill="#ab1d79" fill-opacity="1"><g transform="translate(959.032134, 212.629917)"><g><path d="M 3.875 -51.671875 C 3.875 -44.878906 5.003906 -38.207031 7.265625 -31.65625 C 9.535156 -25.101562 12.894531 -19.28125 17.34375 -14.1875 C 21.789062 -9.09375 27.453125 -4.96875 34.328125 -1.8125 C 41.203125 1.332031 49.25 2.90625 58.46875 2.90625 C 67.6875 2.90625 75.734375 1.332031 82.609375 -1.8125 C 89.484375 -4.96875 95.144531 -9.09375 99.59375 -14.1875 C 104.039062 -19.28125 107.394531 -25.101562 109.65625 -31.65625 C 111.925781 -38.207031 113.0625 -44.878906 113.0625 -51.671875 C 113.0625 -58.460938 111.925781 -65.132812 109.65625 -71.6875 C 107.394531 -78.238281 104.039062 -84.0625 99.59375 -89.15625 C 95.144531 -94.25 89.484375 -98.375 82.609375 -101.53125 C 75.734375 -104.6875 67.6875 -106.265625 58.46875 -106.265625 C 49.25 -106.265625 41.203125 -104.6875 34.328125 -101.53125 C 27.453125 -98.375 21.789062 -94.25 17.34375 -89.15625 C 12.894531 -84.0625 9.535156 -78.238281 7.265625 -71.6875 C 5.003906 -65.132812 3.875 -58.460938 3.875 -51.671875 Z M 41.484375 -60.65625 C 41.484375 -67.125 41.644531 -72.945312 41.96875 -78.125 C 42.289062 -83.300781 43.019531 -87.625 44.15625 -91.09375 C 45.289062 -94.570312 46.988281 -97.238281 49.25 -99.09375 C 51.507812 -100.957031 54.582031 -101.890625 58.46875 -101.890625 C 62.351562 -101.890625 65.425781 -100.957031 67.6875 -99.09375 C 69.945312 -97.238281 71.644531 -94.570312 72.78125 -91.09375 C 73.914062 -87.625 74.644531 -83.300781 74.96875 -78.125 C 75.289062 -72.945312 75.453125 -67.125 75.453125 -60.65625 L 75.453125 -41.734375 C 75.453125 -35.097656 75.289062 -29.269531 74.96875 -24.25 C 74.644531 -19.238281 73.914062 -15.035156 72.78125 -11.640625 C 71.644531 -8.242188 69.945312 -5.695312 67.6875 -4 C 65.425781 -2.300781 62.351562 -1.453125 58.46875 -1.453125 C 54.582031 -1.453125 51.507812 -2.300781 49.25 -4 C 46.988281 -5.695312 45.289062 -8.242188 44.15625 -11.640625 C 43.019531 -15.035156 42.289062 -19.238281 41.96875 -24.25 C 41.644531 -29.269531 41.484375 -35.097656 41.484375 -41.734375 Z M 41.484375 -60.65625 "/></g></g></g><g fill="#ab1d79" fill-opacity="1"><g transform="translate(1075.94753, 212.629917)"><g><path d="M 19.40625 -99.71875 L 19.40625 -36.640625 C 19.40625 -10.273438 31.535156 2.90625 55.796875 2.90625 C 64.367188 2.90625 71.039062 0.96875 75.8125 -2.90625 C 80.582031 -6.789062 84.179688 -11.238281 86.609375 -16.25 L 86.609375 0 L 136.34375 0 L 136.34375 -3.875 L 123.484375 -3.875 L 123.484375 -109.90625 L 74.234375 -101.65625 L 74.234375 -97.53125 L 87.09375 -99.71875 L 87.09375 -35.90625 C 87.09375 -33.15625 86.523438 -30.039062 85.390625 -26.5625 C 84.265625 -23.082031 82.769531 -19.804688 80.90625 -16.734375 C 79.050781 -13.660156 76.867188 -11.070312 74.359375 -8.96875 C 71.847656 -6.875 69.21875 -5.828125 66.46875 -5.828125 C 62.425781 -5.828125 59.632812 -7.203125 58.09375 -9.953125 C 56.5625 -12.703125 55.796875 -17.632812 55.796875 -24.75 L 55.796875 -109.90625 L 6.3125 -101.65625 L 6.3125 -97.53125 Z M 19.40625 -99.71875 "/></g></g></g><g fill="#ab1d79" fill-opacity="1"><g transform="translate(1215.421284, 212.629917)"><g><path d="M 76.90625 -105.296875 L 71.8125 -99.234375 C 69.707031 -101.003906 66.710938 -102.617188 62.828125 -104.078125 C 58.953125 -105.535156 54.265625 -106.265625 48.765625 -106.265625 C 41.484375 -106.265625 35.171875 -105.210938 29.828125 -103.109375 C 24.492188 -101.003906 20.128906 -98.253906 16.734375 -94.859375 C 13.335938 -91.460938 10.789062 -87.582031 9.09375 -83.21875 C 7.394531 -78.851562 6.546875 -74.40625 6.546875 -69.875 C 6.546875 -65.019531 7.394531 -60.410156 9.09375 -56.046875 C 10.789062 -51.679688 13.253906 -47.878906 16.484375 -44.640625 C 19.722656 -41.398438 23.6875 -38.847656 28.375 -36.984375 C 33.070312 -35.128906 38.492188 -34.203125 44.640625 -34.203125 C 50.140625 -34.203125 54.546875 -33.675781 57.859375 -32.625 C 61.171875 -31.570312 63.675781 -30.238281 65.375 -28.625 C 67.082031 -27.007812 68.175781 -25.226562 68.65625 -23.28125 C 69.144531 -21.34375 69.390625 -19.484375 69.390625 -17.703125 C 69.390625 -13.660156 67.691406 -9.941406 64.296875 -6.546875 C 60.898438 -3.148438 55.15625 -1.453125 47.0625 -1.453125 C 38.332031 -1.453125 31.015625 -3.675781 25.109375 -8.125 C 19.203125 -12.570312 14.632812 -20.050781 11.40625 -30.5625 C 10.59375 -33.476562 9.617188 -34.9375 8.484375 -34.9375 C 7.191406 -34.9375 6.546875 -33.804688 6.546875 -31.546875 L 6.546875 -0.25 C 6.546875 1.050781 7.03125 1.703125 8 1.703125 C 8.644531 1.703125 9.210938 1.457031 9.703125 0.96875 C 10.191406 0.488281 10.597656 -0.078125 10.921875 -0.734375 L 15.765625 -7.515625 C 18.835938 -5.253906 23.039062 -2.953125 28.375 -0.609375 C 33.71875 1.734375 39.945312 2.90625 47.0625 2.90625 C 54.175781 2.90625 60.320312 1.773438 65.5 -0.484375 C 70.675781 -2.742188 74.960938 -5.734375 78.359375 -9.453125 C 81.753906 -13.179688 84.300781 -17.390625 86 -22.078125 C 87.695312 -26.765625 88.546875 -31.535156 88.546875 -36.390625 C 88.546875 -41.078125 87.976562 -45.523438 86.84375 -49.734375 C 85.71875 -53.941406 83.738281 -57.660156 80.90625 -60.890625 C 78.082031 -64.128906 74.28125 -66.675781 69.5 -68.53125 C 64.726562 -70.394531 58.707031 -71.328125 51.4375 -71.328125 C 42.695312 -71.328125 36.46875 -72.617188 32.75 -75.203125 C 29.03125 -77.796875 27.171875 -81.4375 27.171875 -86.125 C 27.171875 -90.007812 28.910156 -93.609375 32.390625 -96.921875 C 35.867188 -100.234375 41.328125 -101.890625 48.765625 -101.890625 C 51.515625 -101.890625 54.34375 -101.40625 57.25 -100.4375 C 60.164062 -99.46875 62.914062 -98.09375 65.5 -96.3125 C 68.09375 -94.53125 70.316406 -92.382812 72.171875 -89.875 C 74.035156 -87.375 75.367188 -84.507812 76.171875 -81.28125 C 76.660156 -78.851562 77.472656 -77.640625 78.609375 -77.640625 C 79.734375 -77.640625 80.296875 -79.015625 80.296875 -81.765625 L 80.296875 -104.5625 C 80.296875 -106.019531 79.894531 -106.75 79.09375 -106.75 C 78.28125 -106.75 77.789062 -106.585938 77.625 -106.265625 C 77.46875 -105.941406 77.226562 -105.617188 76.90625 -105.296875 Z M 76.90625 -105.296875 "/></g></g></g></g></g><g clip-path="url(#167ab9f8b8)"><path fill="#4e2780" d="M 1375.324219 39.578125 C 1361.484375 39.578125 1350.226562 50.835938 1350.226562 64.675781 C 1350.226562 78.511719 1361.484375 89.769531 1375.324219 89.769531 C 1389.160156 89.769531 1400.417969 78.511719 1400.417969 64.675781 C 1400.417969 50.835938 1389.160156 39.578125 1375.324219 39.578125 Z M 1375.324219 91.851562 C 1371.65625 91.851562 1368.097656 91.132812 1364.746094 89.714844 C 1361.507812 88.34375 1358.601562 86.386719 1356.105469 83.890625 C 1353.613281 81.394531 1351.652344 78.488281 1350.285156 75.253906 C 1348.867188 71.902344 1348.148438 68.34375 1348.148438 64.675781 C 1348.148438 61.007812 1348.867188 57.449219 1350.285156 54.097656 C 1351.652344 50.859375 1353.613281 47.953125 1356.105469 45.460938 C 1358.601562 42.964844 1361.507812 41.003906 1364.746094 39.636719 C 1368.097656 38.21875 1371.65625 37.5 1375.324219 37.5 C 1378.992188 37.5 1382.550781 38.21875 1385.902344 39.636719 C 1389.136719 41.003906 1392.042969 42.964844 1394.539062 45.460938 C 1397.035156 47.953125 1398.992188 50.859375 1400.363281 54.097656 C 1401.78125 57.449219 1402.5 61.007812 1402.5 64.675781 C 1402.5 68.34375 1401.78125 71.902344 1400.363281 75.253906 C 1398.992188 78.488281 1397.035156 81.394531 1394.539062 83.890625 C 1392.042969 86.386719 1389.136719 88.34375 1385.902344 89.714844 C 1382.550781 91.132812 1378.992188 91.851562 1375.324219 91.851562 " fill-opacity="1" fill-rule="nonzero"/></g><path fill="#4e2780" d="M 1363.832031 73.136719 L 1363.832031 58.464844 L 1358.242188 58.464844 L 1358.242188 56.214844 L 1372.183594 56.214844 L 1372.183594 58.464844 L 1366.601562 58.464844 L 1366.601562 73.136719 L 1363.832031 73.136719 " fill-opacity="1" fill-rule="nonzero"/><path fill="#4e2780" d="M 1389.636719 73.136719 L 1389.636719 64.558594 C 1389.636719 63.828125 1389.652344 63.007812 1389.6875 62.132812 L 1389.703125 58.808594 C 1389.535156 59.324219 1388.328125 62.980469 1388.144531 63.480469 L 1384.605469 73.136719 L 1382.84375 73.136719 L 1379.304688 63.480469 C 1379.125 62.980469 1377.890625 59.566406 1377.722656 59.058594 L 1377.765625 62.140625 C 1377.796875 62.976562 1377.816406 63.785156 1377.816406 64.546875 L 1377.816406 73.136719 L 1375.046875 73.136719 L 1375.046875 56.214844 L 1379.128906 56.214844 L 1382.074219 64.328125 C 1382.46875 65.417969 1382.855469 66.589844 1383.214844 67.816406 L 1383.710938 69.5 L 1384.210938 67.820312 C 1384.539062 66.730469 1384.921875 65.566406 1385.351562 64.367188 L 1388.292969 56.214844 L 1392.40625 56.214844 L 1392.40625 73.136719 L 1389.636719 73.136719 " fill-opacity="1" fill-rule="nonzero"/></svg>